<?xml version="1.0" encoding="UTF-8" standalone="no"?>
<svg
   xmlns:dc="http://purl.org/dc/elements/1.1/"
   xmlns:cc="http://creativecommons.org/ns#"
   xmlns:rdf="http://www.w3.org/1999/02/22-rdf-syntax-ns#"
   xmlns:svg="http://www.w3.org/2000/svg"
   xmlns="http://www.w3.org/2000/svg"
   id="svg196"
   version="1.1"
   viewBox="0 0 48 48">
  <metadata
     id="metadata200">
    <rdf:RDF>
      <cc:Work
         rdf:about="">
        <dc:format>image/svg+xml</dc:format>
        <dc:type
           rdf:resource="http://purl.org/dc/dcmitype/StillImage" />
        <dc:title></dc:title>
      </cc:Work>
    </rdf:RDF>
  </metadata>
  <defs
     id="defs184">
    <linearGradient
       id="0"
       y1="542.8"
       x2="0"
       y2="507.8"
       gradientUnits="userSpaceOnUse"
       gradientTransform="matrix(1.0908929,0,0,1.0652817,-421.70704,-535.04025)">
      <stop
         id="stop179"
         stop-color="#252525" />
      <stop
         id="stop181"
         stop-color="#4c4c4c"
         offset="1" />
    </linearGradient>
  </defs>
  <rect
     width="47.999561"
     height="36.222523"
     x="0.0016690888"
     y="5.8993583"
     fill="url(#0)"
     rx="1.7039844"
     id="rect186"
     style="fill:url(#0);stroke-width:1.71427" />
  <g
     transform="matrix(1.71427,0,0,1.71427,10.649,-3.748)"
     fill="#32ff4d"
     stroke="#35d04a"
     stroke-linejoin="round"
     fill-opacity="0.751"
     stroke-linecap="round"
     stroke-width="0.175"
     id="g192">
    <path
       d="M 5.085,13.1 C 5.054,13.071 5.015,13.056 4.967,13.056 H 0.044 c -0.048,0 -0.087,0.015 -0.118,0.044 -0.031,0.029 -0.046,0.067 -0.046,0.112 v 0.312 c 0,0.046 0.015,0.083 0.046,0.112 0.031,0.029 0.07,0.044 0.118,0.044 h 4.923 c 0.048,0 0.087,-0.015 0.118,-0.044 0.031,-0.029 0.046,-0.067 0.046,-0.112 v -0.312 c 0,-0.046 -0.015,-0.083 -0.046,-0.112 z"
       id="path188" />
    <path
       d="M -2.792,8.489 C -2.826,8.456 -2.866,8.44 -2.91,8.44 c -0.044,0 -0.084,0.016 -0.118,0.049 l -0.256,0.244 c -0.034,0.033 -0.051,0.07 -0.051,0.112 0,0.042 0.017,0.08 0.051,0.112 l 2.02,1.917 -2.02,1.918 c -0.034,0.033 -0.051,0.07 -0.051,0.112 0,0.042 0.017,0.08 0.051,0.112 l 0.256,0.244 c 0.034,0.033 0.073,0.049 0.118,0.049 0.044,0 0.084,-0.016 0.118,-0.049 l 2.39,-2.274 c 0.034,-0.033 0.051,-0.07 0.051,-0.112 0,-0.042 -0.017,-0.08 -0.051,-0.112 l -2.39,-2.274 z"
       id="path190" />
  </g>
  <g
     id="layer1">
    <path
       id="path309"
       d="m 22.354162,36.837072 v -1.363785 h 4.425042 4.425044 v -1.668459 -1.66846 h -4.425044 -4.425042 v -4.221927 -4.221928 h 5.68727 5.687268 v -1.262224 -1.262226 h 2.205267 2.205269 V 19.19493 17.221795 h 1.262226 1.262224 v 1.973135 1.973133 h 2.219777 2.219777 v 1.262226 1.262224 h -2.219777 -2.219777 v 7.254172 7.25417 H 31.508924 22.354162 Z M 38.139236,29.582901 V 23.692513 H 35.933967 33.7287 v 1.262228 1.262225 h -4.425043 -4.425044 v 1.697475 1.697476 h 4.425044 4.425043 v 2.930684 2.930686 h 2.205267 2.205269 z"
       style="fill:#35d04a;fill-opacity:1;stroke-width:0.0290167" />
  </g>
  <g
     id="layer2" />
</svg>
